<svg width="42" height="30" viewBox="0 0 42 30" fill="none" xmlns="http://www.w3.org/2000/svg">
<g clip-path="url(#clip0_885_397)">
<path d="M19.9824 5.30251L21.7003 0.0933838H18.5416L16.8345 5.27076L19.9824 5.30251Z" fill="white"/>
<path d="M15.5629 5.30111L17.2631 0.0933838H14.8404L13.1333 5.27076L15.5629 5.30111Z" fill="white"/>
<path d="M11.9864 5.30251L13.7025 0.0933838H11.9864L10.2358 5.27076L11.9864 5.30251Z" fill="white"/>
<path d="M10.9051 0.0933838H9.99804L8.24744 5.27076L9.15452 5.30251L10.9051 0.0933838Z" fill="white"/>
<path d="M8.1558 16.9638L9.57134 12.5565H7.90999L6.44165 16.9606L8.1558 16.9638Z" fill="white"/>
<path d="M9.28394 16.9606L11.7024 16.9639L13.1539 12.5593H10.735L9.28394 16.9606Z" fill="white"/>
<path d="M17.5921 12.5565H14.4311L12.981 16.9638H16.1485L17.5921 12.5565Z" fill="white"/>
<path d="M6.75702 12.5565L5.86864 12.5593L4.39001 16.9853L5.2971 16.9638L6.75702 12.5565Z" fill="white"/>
<path d="M10.3274 24.6975L8.62073 29.8749L11.7682 29.9066L13.4861 24.6975H10.3274Z" fill="white"/>
<path d="M6.6267 24.6975L4.91956 29.8749L7.34919 29.9048L9.04886 24.6975H6.6267Z" fill="white"/>
<path d="M3.7727 24.6975L2.02209 29.8749L3.7727 29.9066L5.48872 24.6975H3.7727Z" fill="white"/>
<path d="M1.75061 24.6965L0 29.8739L0.907081 29.9057L2.65769 24.6965H1.75061Z" fill="white"/>
<path d="M40.4364 16.5366C39.5597 15.3887 38.4376 14.5963 37.0721 14.1582C37.6184 13.9953 38.1437 13.7422 38.6517 13.4008C39.1573 13.0576 39.6017 12.6354 39.9845 12.1283C40.3672 11.624 40.6682 11.016 40.8869 10.3038C41.1065 9.59307 41.2164 8.75905 41.2164 7.80315C41.2164 6.54558 40.9827 5.43091 40.5186 4.46006C40.0527 3.49015 39.3966 2.68415 38.5484 2.04019C37.6993 1.39856 36.681 0.912907 35.4907 0.585556C34.3023 0.256337 32.9811 0.0928955 31.5306 0.0928955H22.8373L21.1213 5.30202H29.5612C30.5183 5.30202 31.3871 5.34078 32.1675 5.42344C32.9461 5.50656 33.6162 5.67654 34.1775 5.93665C34.7388 6.19582 35.1692 6.56566 35.4696 7.04291C35.7715 7.52156 35.923 8.15852 35.923 8.95051C35.923 10.2618 35.5669 11.1929 34.8542 11.7388C34.1429 12.2857 33.0494 12.5584 31.5707 12.5584H18.7281L17.2766 16.9596L31.9418 16.9456C33.4181 16.9456 34.5392 17.2809 35.3061 17.9501C36.0711 18.6216 36.4548 19.5696 36.4548 20.801C36.4548 21.5397 36.2963 22.1548 35.9828 22.646C35.6673 23.1387 35.2229 23.5417 34.649 23.8564C34.0742 24.1707 33.3905 24.3962 32.5975 24.5326C31.803 24.669 30.9408 24.7371 30.0117 24.7371H14.7147L13.0109 29.9047H32.147C33.5966 29.9047 34.9168 29.6941 36.1071 29.2701C37.2974 28.8461 38.3101 28.2376 39.1419 27.4437C39.978 26.6517 40.6205 25.7014 41.0715 24.5947C41.5248 23.4861 41.7482 22.2491 41.7482 20.8836C41.7482 19.1334 41.3108 17.6839 40.4359 16.5347L40.4364 16.5366Z" fill="white"/>
</g>
<defs>
<clipPath id="clip0_885_397">
<rect width="41.8421" height="30" fill="white"/>
</clipPath>
</defs>
</svg>
